{
    "asset" : {
        "generator" : "Khronos glTF Blender I/O v1.8.19",
        "version" : "2.0"
    },
    "scene" : 0,
    "scenes" : [
        {
            "name" : "Scene",
            "nodes" : [
                0
            ]
        }
    ],
    "nodes" : [
        {
            "mesh" : 0,
            "name" : "curiosity_path"
        }
    ],
    "materials" : [
        {
            "doubleSided" : true,
            "name" : "Material.001",
            "pbrMetallicRoughness" : {
                "baseColorFactor" : [
                    0.21223071217536926,
                    0.11193232983350754,
                    0.02842606045305729,
                    1
                ],
                "metallicFactor" : 0,
                "roughnessFactor" : 0.5
            }
        }
    ],
    "meshes" : [
        {
            "name" : "curiosity_path",
            "primitives" : [
                {
                    "attributes" : {
                        "POSITION" : 0,
                        "NORMAL" : 1
                    },
                    "indices" : 2,
                    "material" : 0
                }
            ]
        }
    ],
    "accessors" : [
        {
            "bufferView" : 0,
            "componentType" : 5126,
            "count" : 116550,
            "max" : [
                152.00559997558594,
                28.07635498046875,
                152.00352478027344
            ],
            "min" : [
                -152.0043182373047,
                -15.42853832244873,
                -152.0065460205078
            ],
            "type" : "VEC3"
        },
        {
            "bufferView" : 1,
            "componentType" : 5126,
            "count" : 116550,
            "type" : "VEC3"
        },
        {
            "bufferView" : 2,
            "componentType" : 5125,
            "count" : 116550,
            "type" : "SCALAR"
        }
    ],
    "bufferViews" : [
        {
            "buffer" : 0,
            "byteLength" : 1398600,
            "byteOffset" : 0
        },
        {
            "buffer" : 0,
            "byteLength" : 1398600,
            "byteOffset" : 1398600
        },
        {
            "buffer" : 0,
            "byteLength" : 466200,
            "byteOffset" : 2797200
        }
    ],
    "buffers" : [
        {
            "byteLength" : 3263400,
            "uri" : "curiosity_path.bin"
        }
    ]
}
